<svg width="116" height="72" viewBox="0 0 116 72" fill="none" xmlns="http://www.w3.org/2000/svg">
<path d="M8 36H108" stroke="#4A6572" stroke-width="4" stroke-linecap="round" stroke-linejoin="round"/>
<path d="M8 42C11.3137 42 14 39.3137 14 36C14 32.6863 11.3137 30 8 30C4.68629 30 2 32.6863 2 36C2 39.3137 4.68629 42 8 42Z" fill="#4A6572" stroke="#4A6572" stroke-width="4" stroke-linecap="round" stroke-linejoin="round"/>
<path d="M58 42C61.3137 42 64 39.3137 64 36C64 32.6863 61.3137 30 58 30C54.6863 30 52 32.6863 52 36C52 39.3137 54.6863 42 58 42Z" fill="#5782C2" stroke="#5782C2" stroke-width="4" stroke-linecap="round" stroke-linejoin="round"/>
<path d="M108 42C111.314 42 114 39.3137 114 36C114 32.6863 111.314 30 108 30C104.686 30 102 32.6863 102 36C102 39.3137 104.686 42 108 42Z" fill="#4A6572" stroke="#4A6572" stroke-width="4" stroke-linecap="round" stroke-linejoin="round"/>
<path d="M58 36L88 6H108" stroke="#4A6572" stroke-width="4" stroke-linecap="round" stroke-linejoin="round"/>
<path d="M58 36L88 66H108" stroke="#4A6572" stroke-width="4" stroke-linecap="round" stroke-linejoin="round" stroke-dasharray="8 6"/>
<path d="M108 10C110.209 10 112 8.20914 112 6C112 3.79086 110.209 2 108 2C105.791 2 104 3.79086 104 6C104 8.20914 105.791 10 108 10Z" fill="white" stroke="#4A6572" stroke-width="4" stroke-linecap="round" stroke-linejoin="round"/>
<path d="M108 70C110.209 70 112 68.2091 112 66C112 63.7909 110.209 62 108 62C105.791 62 104 63.7909 104 66C104 68.2091 105.791 70 108 70Z" fill="white" stroke="#4A6572" stroke-width="4" stroke-linecap="round" stroke-linejoin="round"/>
</svg>
