<svg width="317" height="95" viewBox="0 0 317 95" fill="none" xmlns="http://www.w3.org/2000/svg">
<path d="M124.606 21.1484H118.073C117.954 20.3033 117.71 19.5526 117.342 18.8963C116.974 18.2301 116.502 17.6634 115.925 17.196C115.349 16.7287 114.683 16.3707 113.927 16.1222C113.181 15.8736 112.371 15.7493 111.496 15.7493C109.915 15.7493 108.538 16.142 107.364 16.9276C106.191 17.7031 105.281 18.8366 104.635 20.3281C103.989 21.8097 103.665 23.6094 103.665 25.7273C103.665 27.9048 103.989 29.7344 104.635 31.2159C105.291 32.6974 106.206 33.8161 107.379 34.5717C108.553 35.3274 109.91 35.7053 111.451 35.7053C112.316 35.7053 113.116 35.5909 113.852 35.3622C114.598 35.1335 115.259 34.8004 115.836 34.3629C116.413 33.9155 116.89 33.3736 117.268 32.7372C117.656 32.1009 117.924 31.375 118.073 30.5597L124.606 30.5895C124.437 31.9915 124.014 33.3438 123.338 34.6463C122.672 35.9389 121.772 37.0973 120.638 38.1214C119.515 39.1357 118.173 39.9411 116.612 40.5376C115.06 41.1243 113.305 41.4176 111.347 41.4176C108.622 41.4176 106.186 40.8011 104.038 39.5682C101.901 38.3352 100.21 36.5504 98.9673 34.2138C97.7344 31.8771 97.1179 29.0483 97.1179 25.7273C97.1179 22.3963 97.7443 19.5625 98.9972 17.2259C100.25 14.8892 101.95 13.1094 104.098 11.8864C106.246 10.6534 108.662 10.0369 111.347 10.0369C113.116 10.0369 114.757 10.2855 116.268 10.7827C117.79 11.2798 119.137 12.0057 120.31 12.9602C121.484 13.9048 122.438 15.0632 123.174 16.4354C123.92 17.8075 124.397 19.3786 124.606 21.1484ZM129.237 10.4545H137.201L145.613 30.9773H145.971L154.383 10.4545H162.348V41H156.083V21.1186H155.83L147.925 40.8509H143.659L135.755 21.044H135.501V41H129.237V10.4545ZM167.669 41V10.4545H179.72C182.036 10.4545 184.01 10.897 185.641 11.782C187.271 12.657 188.514 13.875 189.369 15.4361C190.235 16.9872 190.667 18.777 190.667 20.8054C190.667 22.8338 190.23 24.6236 189.355 26.1747C188.48 27.7259 187.212 28.9339 185.551 29.799C183.901 30.6641 181.902 31.0966 179.556 31.0966H171.874V25.9212H178.512C179.754 25.9212 180.779 25.7074 181.584 25.2798C182.399 24.8423 183.006 24.2408 183.404 23.4751C183.811 22.6996 184.015 21.8097 184.015 20.8054C184.015 19.7912 183.811 18.9062 183.404 18.1506C183.006 17.3849 182.399 16.7933 181.584 16.3757C180.769 15.9482 179.735 15.7344 178.482 15.7344H174.127V41H167.669ZM193.699 15.7791V10.4545H218.785V15.7791H209.434V41H203.05V15.7791H193.699ZM232.458 41V36.3466L243.331 26.2791C244.256 25.3842 245.031 24.5788 245.658 23.8629C246.294 23.147 246.776 22.446 247.105 21.7599C247.433 21.0639 247.597 20.3132 247.597 19.5078C247.597 18.6129 247.393 17.8423 246.985 17.196C246.578 16.5398 246.021 16.0376 245.315 15.6896C244.609 15.3317 243.808 15.1527 242.914 15.1527C241.979 15.1527 241.164 15.3416 240.468 15.7195C239.771 16.0973 239.235 16.6392 238.857 17.3452C238.479 18.0511 238.29 18.8913 238.29 19.8658H232.16C232.16 17.8672 232.612 16.1321 233.517 14.6605C234.422 13.1889 235.69 12.0504 237.32 11.245C238.951 10.4396 240.83 10.0369 242.958 10.0369C245.146 10.0369 247.05 10.4247 248.671 11.2003C250.301 11.9659 251.569 13.0298 252.474 14.392C253.379 15.7543 253.831 17.3153 253.831 19.0753C253.831 20.2287 253.602 21.3672 253.145 22.4908C252.698 23.6143 251.897 24.8622 250.744 26.2344C249.59 27.5966 247.965 29.2322 245.867 31.1413L241.407 35.5114V35.7202H254.234V41H232.458ZM270.636 41.4176C269.065 41.4077 267.549 41.1442 266.087 40.6271C264.636 40.1101 263.333 39.2699 262.18 38.1065C261.026 36.9432 260.112 35.402 259.435 33.483C258.769 31.5639 258.436 29.2074 258.436 26.4134C258.446 23.848 258.739 21.5561 259.316 19.5376C259.903 17.5092 260.738 15.7891 261.822 14.3771C262.915 12.9652 264.223 11.8913 265.744 11.1555C267.266 10.4098 268.971 10.0369 270.86 10.0369C272.898 10.0369 274.698 10.4347 276.259 11.2301C277.82 12.0156 279.073 13.0845 280.018 14.4368C280.972 15.7891 281.549 17.3054 281.748 18.9858H275.379C275.131 17.9219 274.609 17.0866 273.813 16.4801C273.018 15.8736 272.033 15.5703 270.86 15.5703C268.871 15.5703 267.36 16.4354 266.326 18.1655C265.302 19.8956 264.78 22.2472 264.76 25.2202H264.969C265.426 24.3153 266.043 23.5447 266.818 22.9084C267.604 22.2621 268.494 21.7699 269.488 21.4318C270.492 21.0838 271.551 20.9098 272.665 20.9098C274.474 20.9098 276.085 21.3374 277.497 22.1925C278.909 23.0376 280.023 24.201 280.838 25.6825C281.653 27.1641 282.061 28.8594 282.061 30.7685C282.061 32.8366 281.579 34.6761 280.614 36.2869C279.66 37.8977 278.322 39.1605 276.602 40.0753C274.892 40.9801 272.903 41.4276 270.636 41.4176ZM270.607 36.3466C271.601 36.3466 272.491 36.108 273.276 35.6307C274.062 35.1534 274.678 34.5071 275.126 33.6918C275.573 32.8764 275.797 31.9616 275.797 30.9474C275.797 29.9332 275.573 29.0234 275.126 28.218C274.688 27.4126 274.082 26.7713 273.306 26.294C272.531 25.8168 271.646 25.5781 270.651 25.5781C269.906 25.5781 269.214 25.7173 268.578 25.9957C267.952 26.2741 267.4 26.6619 266.923 27.1591C266.455 27.6562 266.087 28.233 265.819 28.8892C265.55 29.5355 265.416 30.2266 265.416 30.9624C265.416 31.9467 265.64 32.8466 266.087 33.6619C266.545 34.4773 267.161 35.1286 267.937 35.6158C268.722 36.103 269.612 36.3466 270.607 36.3466ZM297.93 41.4176C295.703 41.4176 293.719 41.0348 291.979 40.2692C290.249 39.4936 288.882 38.4297 287.878 37.0774C286.884 35.7152 286.371 34.1442 286.342 32.3643H292.844C292.884 33.1101 293.128 33.7663 293.575 34.3331C294.033 34.8899 294.639 35.3224 295.395 35.6307C296.151 35.9389 297.001 36.093 297.945 36.093C298.93 36.093 299.8 35.919 300.555 35.571C301.311 35.223 301.903 34.7408 302.33 34.1243C302.758 33.5078 302.972 32.7969 302.972 31.9915C302.972 31.1761 302.743 30.4553 302.286 29.8288C301.838 29.1925 301.192 28.6953 300.347 28.3374C299.511 27.9794 298.517 27.8004 297.364 27.8004H294.515V23.0575H297.364C298.338 23.0575 299.198 22.8885 299.944 22.5504C300.7 22.2124 301.286 21.745 301.704 21.1484C302.121 20.5419 302.33 19.8359 302.33 19.0305C302.33 18.2649 302.146 17.5938 301.778 17.017C301.42 16.4304 300.913 15.973 300.257 15.6449C299.611 15.3168 298.855 15.1527 297.99 15.1527C297.115 15.1527 296.315 15.3118 295.589 15.63C294.863 15.9382 294.281 16.3807 293.844 16.9574C293.406 17.5341 293.173 18.2102 293.143 18.9858H286.953C286.983 17.2259 287.485 15.6747 288.46 14.3324C289.434 12.9901 290.746 11.941 292.397 11.1854C294.058 10.4197 295.932 10.0369 298.02 10.0369C300.128 10.0369 301.972 10.4197 303.553 11.1854C305.134 11.951 306.362 12.9851 307.237 14.2876C308.122 15.5803 308.56 17.032 308.55 18.6428C308.56 20.353 308.028 21.7798 306.954 22.9233C305.89 24.0668 304.503 24.7926 302.793 25.1009V25.3395C305.04 25.6278 306.75 26.4084 307.923 27.6811C309.107 28.9439 309.693 30.5249 309.683 32.424C309.693 34.1641 309.191 35.7102 308.177 37.0625C307.173 38.4148 305.786 39.4787 304.016 40.2543C302.246 41.0298 300.217 41.4176 297.93 41.4176Z" fill="#25182D"/>
<path d="M98.1705 86V59.8182H113.972V62.6307H101.341V71.4773H113.153V74.2898H101.341V83.1875H114.176V86H98.1705ZM121.527 66.3636L126.232 74.392L130.936 66.3636H134.413L128.072 76.1818L134.413 86H130.936L126.232 78.3807L121.527 86H118.05L124.288 76.1818L118.05 66.3636H121.527ZM144.497 86.4602C143.252 86.4602 142.123 86.2259 141.109 85.7571C140.095 85.2798 139.289 84.5938 138.693 83.6989C138.096 82.7955 137.798 81.7045 137.798 80.4261C137.798 79.3011 138.02 78.3892 138.463 77.6903C138.906 76.983 139.498 76.429 140.24 76.0284C140.981 75.6278 141.799 75.3295 142.694 75.1335C143.598 74.929 144.505 74.767 145.417 74.6477C146.61 74.4943 147.578 74.3793 148.319 74.3026C149.069 74.2173 149.615 74.0767 149.956 73.8807C150.305 73.6847 150.48 73.3437 150.48 72.858V72.7557C150.48 71.4943 150.135 70.5142 149.444 69.8153C148.762 69.1165 147.727 68.767 146.338 68.767C144.897 68.767 143.768 69.0824 142.95 69.7131C142.132 70.3437 141.556 71.017 141.224 71.733L138.36 70.7102C138.872 69.517 139.554 68.5881 140.406 67.9233C141.267 67.25 142.204 66.7812 143.218 66.517C144.241 66.2443 145.247 66.108 146.235 66.108C146.866 66.108 147.591 66.1847 148.409 66.3381C149.235 66.483 150.032 66.7855 150.799 67.2457C151.575 67.706 152.218 68.4006 152.73 69.3295C153.241 70.2585 153.497 71.5028 153.497 73.0625V86H150.48V83.3409H150.326C150.122 83.767 149.781 84.223 149.304 84.7088C148.826 85.1946 148.191 85.608 147.399 85.9489C146.606 86.2898 145.639 86.4602 144.497 86.4602ZM144.957 83.75C146.15 83.75 147.156 83.5156 147.974 83.0469C148.801 82.5781 149.423 81.973 149.841 81.2315C150.267 80.4901 150.48 79.7102 150.48 78.892V76.1307C150.352 76.2841 150.071 76.4247 149.636 76.5526C149.21 76.6719 148.716 76.7784 148.153 76.8722C147.599 76.9574 147.058 77.0341 146.529 77.1023C146.01 77.1619 145.588 77.2131 145.264 77.2557C144.48 77.358 143.747 77.5241 143.065 77.7543C142.392 77.9759 141.846 78.3125 141.429 78.7642C141.02 79.2074 140.815 79.8125 140.815 80.5795C140.815 81.6278 141.203 82.4205 141.978 82.9574C142.762 83.4858 143.755 83.75 144.957 83.75ZM159.004 86V66.3636H161.918V69.4318H162.174C162.583 68.3835 163.244 67.5696 164.156 66.9901C165.067 66.402 166.163 66.108 167.441 66.108C168.737 66.108 169.815 66.402 170.675 66.9901C171.545 67.5696 172.222 68.3835 172.708 69.4318H172.913C173.415 68.4176 174.17 67.6122 175.175 67.0156C176.181 66.4105 177.387 66.108 178.793 66.108C180.549 66.108 181.985 66.6577 183.102 67.7571C184.218 68.848 184.776 70.5483 184.776 72.858V86H181.759V72.858C181.759 71.4091 181.363 70.3736 180.57 69.7514C179.778 69.1293 178.844 68.8182 177.771 68.8182C176.39 68.8182 175.32 69.2358 174.562 70.071C173.803 70.8977 173.424 71.946 173.424 73.2159V86H170.356V72.5511C170.356 71.4347 169.994 70.5355 169.269 69.8537C168.545 69.1634 167.612 68.8182 166.469 68.8182C165.685 68.8182 164.952 69.027 164.271 69.4446C163.597 69.8622 163.052 70.4418 162.634 71.1832C162.225 71.9162 162.021 72.7642 162.021 73.7273V86H159.004ZM199.395 62.6307V59.8182H219.031V62.6307H210.798V86H207.628V62.6307H199.395ZM221.476 86V66.3636H224.391V69.3295H224.596C224.953 68.358 225.601 67.5696 226.539 66.9645C227.476 66.3594 228.533 66.0568 229.709 66.0568C229.931 66.0568 230.208 66.0611 230.54 66.0696C230.873 66.0781 231.124 66.0909 231.294 66.108V69.1761C231.192 69.1506 230.958 69.1122 230.591 69.0611C230.233 69.0014 229.854 68.9716 229.453 68.9716C228.499 68.9716 227.647 69.1719 226.897 69.5724C226.155 69.9645 225.567 70.5099 225.132 71.2088C224.706 71.8991 224.493 72.6875 224.493 73.5739V86H221.476ZM240.649 86.4602C239.405 86.4602 238.276 86.2259 237.261 85.7571C236.247 85.2798 235.442 84.5938 234.845 83.6989C234.249 82.7955 233.95 81.7045 233.95 80.4261C233.95 79.3011 234.172 78.3892 234.615 77.6903C235.058 76.983 235.651 76.429 236.392 76.0284C237.134 75.6278 237.952 75.3295 238.847 75.1335C239.75 74.929 240.658 74.767 241.57 74.6477C242.763 74.4943 243.73 74.3793 244.472 74.3026C245.222 74.2173 245.767 74.0767 246.108 73.8807C246.457 73.6847 246.632 73.3437 246.632 72.858V72.7557C246.632 71.4943 246.287 70.5142 245.597 69.8153C244.915 69.1165 243.879 68.767 242.49 68.767C241.05 68.767 239.92 69.0824 239.102 69.7131C238.284 70.3437 237.709 71.017 237.376 71.733L234.513 70.7102C235.024 69.517 235.706 68.5881 236.558 67.9233C237.419 67.25 238.357 66.7812 239.371 66.517C240.393 66.2443 241.399 66.108 242.388 66.108C243.018 66.108 243.743 66.1847 244.561 66.3381C245.388 66.483 246.185 66.7855 246.952 67.2457C247.727 67.706 248.371 68.4006 248.882 69.3295C249.393 70.2585 249.649 71.5028 249.649 73.0625V86H246.632V83.3409H246.479C246.274 83.767 245.933 84.223 245.456 84.7088C244.979 85.1946 244.344 85.608 243.551 85.9489C242.759 86.2898 241.791 86.4602 240.649 86.4602ZM241.109 83.75C242.303 83.75 243.308 83.5156 244.126 83.0469C244.953 82.5781 245.575 81.973 245.993 81.2315C246.419 80.4901 246.632 79.7102 246.632 78.892V76.1307C246.504 76.2841 246.223 76.4247 245.788 76.5526C245.362 76.6719 244.868 76.7784 244.305 76.8722C243.751 76.9574 243.21 77.0341 242.682 77.1023C242.162 77.1619 241.74 77.2131 241.416 77.2557C240.632 77.358 239.899 77.5241 239.217 77.7543C238.544 77.9759 237.999 78.3125 237.581 78.7642C237.172 79.2074 236.967 79.8125 236.967 80.5795C236.967 81.6278 237.355 82.4205 238.131 82.9574C238.915 83.4858 239.908 83.75 241.109 83.75ZM255.156 86V66.3636H258.173V86H255.156ZM256.69 63.0909C256.102 63.0909 255.595 62.8906 255.169 62.4901C254.751 62.0895 254.542 61.608 254.542 61.0455C254.542 60.483 254.751 60.0014 255.169 59.6009C255.595 59.2003 256.102 59 256.69 59C257.278 59 257.781 59.2003 258.199 59.6009C258.625 60.0014 258.838 60.483 258.838 61.0455C258.838 61.608 258.625 62.0895 258.199 62.4901C257.781 62.8906 257.278 63.0909 256.69 63.0909ZM266.716 74.1875V86H263.699V66.3636H266.614V69.4318H266.869C267.33 68.4347 268.028 67.6335 268.966 67.0284C269.903 66.4148 271.114 66.108 272.597 66.108C273.926 66.108 275.089 66.3807 276.087 66.9261C277.084 67.4631 277.859 68.2812 278.413 69.3807C278.967 70.4716 279.244 71.8523 279.244 73.5227V86H276.227V73.7273C276.227 72.1847 275.827 70.983 275.026 70.1222C274.224 69.2528 273.125 68.8182 271.727 68.8182C270.764 68.8182 269.903 69.027 269.145 69.4446C268.395 69.8622 267.803 70.4716 267.368 71.2727C266.933 72.0739 266.716 73.0455 266.716 74.1875ZM292.99 86.4091C291.098 86.4091 289.466 85.9915 288.094 85.1562C286.73 84.3125 285.678 83.1364 284.936 81.6278C284.203 80.1108 283.837 78.3466 283.837 76.3352C283.837 74.3239 284.203 72.5511 284.936 71.017C285.678 69.4744 286.709 68.2727 288.03 67.4119C289.36 66.5426 290.911 66.108 292.684 66.108C293.706 66.108 294.716 66.2784 295.713 66.6193C296.711 66.9602 297.618 67.5142 298.436 68.2812C299.255 69.0398 299.907 70.0455 300.392 71.2983C300.878 72.5511 301.121 74.0937 301.121 75.9261V77.2045H285.985V74.5966H298.053C298.053 73.4886 297.831 72.5 297.388 71.6307C296.953 70.7614 296.331 70.0753 295.522 69.5724C294.721 69.0696 293.775 68.8182 292.684 68.8182C291.482 68.8182 290.442 69.1165 289.564 69.7131C288.695 70.3011 288.026 71.0682 287.557 72.0142C287.088 72.9602 286.854 73.9744 286.854 75.0568V76.7955C286.854 78.2784 287.11 79.5355 287.621 80.5668C288.141 81.5895 288.861 82.3693 289.782 82.9062C290.702 83.4347 291.772 83.6989 292.99 83.6989C293.783 83.6989 294.499 83.5881 295.138 83.3665C295.786 83.1364 296.344 82.7955 296.813 82.3438C297.282 81.8835 297.644 81.3125 297.9 80.6307L300.814 81.4489C300.507 82.4375 299.992 83.3068 299.267 84.0568C298.543 84.7983 297.648 85.3778 296.583 85.7955C295.517 86.2045 294.32 86.4091 292.99 86.4091ZM305.711 86V66.3636H308.625V69.3295H308.83C309.188 68.358 309.836 67.5696 310.773 66.9645C311.711 66.3594 312.767 66.0568 313.944 66.0568C314.165 66.0568 314.442 66.0611 314.775 66.0696C315.107 66.0781 315.358 66.0909 315.529 66.108V69.1761C315.426 69.1506 315.192 69.1122 314.826 69.0611C314.468 69.0014 314.088 68.9716 313.688 68.9716C312.733 68.9716 311.881 69.1719 311.131 69.5724C310.39 69.9645 309.801 70.5099 309.367 71.2088C308.941 71.8991 308.728 72.6875 308.728 73.5739V86H305.711Z" fill="#25182D"/>
<path fill-rule="evenodd" clip-rule="evenodd" d="M28.9928 11C19.0614 11 10.9687 18.8724 10.6145 28.7173C4.29802 33.6484 0 40.1909 0 49.5131C0 56.6572 2.59623 61.4768 6.42108 65.9992C6.77662 77.0013 15.8072 85.812 26.8963 85.812C33.7275 85.812 39.7779 82.4685 43.5001 77.3281C47.2222 82.4685 53.2726 85.812 60.1038 85.812C71.193 85.812 80.2236 77.0013 80.579 65.9992C84.404 61.4768 87 56.6572 87 49.5131C87 40.1909 82.7022 33.6484 76.3856 28.7173C76.0314 18.8724 67.939 11 58.0073 11C52.1126 11 46.8656 13.7734 43.5001 18.0866C40.1345 13.7734 34.8875 11 28.9928 11ZM18.3692 29.3904C18.3692 23.5231 23.1256 18.7668 28.9928 18.7668C34.86 18.7668 39.6163 23.5231 39.6163 29.3904L39.6162 41.336C39.5147 42.5146 38.8398 44.9858 37.2901 47.2456C35.7544 49.485 33.6211 51.1637 30.697 51.4901C28.5655 51.7279 27.0304 53.6487 27.2683 55.7803C27.5063 57.9117 29.427 59.4468 31.5585 59.2089C34.8059 58.8465 37.4731 57.614 39.6161 55.9774L39.616 65.3254C39.616 72.3505 33.9211 78.0452 26.8963 78.0452C19.8715 78.0452 14.177 72.3505 14.177 65.3254V65.2075C14.3977 64.0474 14.8434 62.691 15.4451 61.4676C16.0928 60.1502 16.7535 59.3274 17.1969 58.9773C18.8802 57.6481 19.1673 55.2061 17.8382 53.5229C16.5091 51.8396 14.0671 51.5525 12.3838 52.8816C11.1321 53.87 10.1106 55.1805 9.30127 56.5233C8.2776 54.4552 7.76679 52.2545 7.76679 49.5131C7.76679 44.4416 9.49407 40.5591 12.6809 37.2568C13.3721 38.4537 14.1791 39.4906 15.0239 40.3675C16.9959 42.4145 19.3754 43.794 21.3257 44.2386C23.4168 44.7153 25.4984 43.4066 25.9752 41.3155C26.4519 39.2245 25.1432 37.1428 23.0521 36.6661C23.0536 36.6665 23.0533 36.6664 23.0521 36.6661C23.0415 36.6631 22.9602 36.6405 22.8116 36.5767C22.6499 36.5071 22.4419 36.4028 22.2008 36.2572C21.7161 35.9641 21.1572 35.5393 20.6174 34.9789C19.5638 33.8852 18.6325 32.3339 18.3692 30.2476V29.3904ZM55.4416 59.2089C52.1942 58.8465 49.527 57.614 47.384 55.9774L47.3841 65.3254C47.3841 72.3505 53.079 78.0452 60.1038 78.0452C67.1288 78.0452 72.8228 72.3505 72.8228 65.3254V65.2075C72.6022 64.0474 72.1567 62.691 71.5552 61.4676C70.9072 60.1502 70.2467 59.3274 69.803 58.9773C68.1198 57.6481 67.8327 55.2061 69.1618 53.5229C70.4909 51.8396 72.9327 51.5525 74.6166 52.8816C75.868 53.87 76.8895 55.1805 77.6991 56.5233C78.7224 54.4552 79.2332 52.2545 79.2332 49.5131C79.2332 44.4419 77.5065 40.5595 74.3196 37.2573C73.6286 38.454 72.8215 39.4907 71.9771 40.3675C70.005 42.4145 67.6252 43.794 65.6754 44.2386C63.584 44.7153 61.5024 43.4066 61.0257 41.3155C60.549 39.2245 61.8576 37.1428 63.9487 36.6661C63.9593 36.6631 64.0407 36.6405 64.1892 36.5767C64.3507 36.5071 64.5589 36.4028 64.8 36.2572C65.2846 35.9641 65.8438 35.5393 66.3838 34.9789C67.4363 33.8863 68.3665 32.3369 68.6312 30.2536V29.3904C68.6312 23.5231 63.8748 18.7668 58.0073 18.7668C52.1401 18.7668 47.3838 23.5231 47.3838 29.3904L47.3839 41.336C47.4854 42.5147 48.1603 44.9858 49.71 47.2456C51.2457 49.485 53.379 51.1637 56.3031 51.4901C58.4346 51.7279 59.9697 53.6487 59.7318 55.7803C59.4939 57.9117 57.5731 59.4468 55.4416 59.2089Z" fill="#6D2F75"/>
</svg>
