<svg width="339" height="95" viewBox="0 0 339 95" fill="none" xmlns="http://www.w3.org/2000/svg">
<path d="M146.606 21.1484H140.073C139.954 20.3033 139.71 19.5526 139.342 18.8963C138.974 18.2301 138.502 17.6634 137.925 17.196C137.349 16.7287 136.683 16.3707 135.927 16.1222C135.181 15.8736 134.371 15.7493 133.496 15.7493C131.915 15.7493 130.538 16.142 129.364 16.9276C128.191 17.7031 127.281 18.8366 126.635 20.3281C125.989 21.8097 125.665 23.6094 125.665 25.7273C125.665 27.9048 125.989 29.7344 126.635 31.2159C127.291 32.6974 128.206 33.8161 129.379 34.5717C130.553 35.3274 131.91 35.7053 133.451 35.7053C134.316 35.7053 135.116 35.5909 135.852 35.3622C136.598 35.1335 137.259 34.8004 137.836 34.3629C138.413 33.9155 138.89 33.3736 139.268 32.7372C139.656 32.1009 139.924 31.375 140.073 30.5597L146.606 30.5895C146.437 31.9915 146.014 33.3438 145.338 34.6463C144.672 35.9389 143.772 37.0973 142.638 38.1214C141.515 39.1357 140.173 39.9411 138.612 40.5376C137.06 41.1243 135.305 41.4176 133.347 41.4176C130.622 41.4176 128.186 40.8011 126.038 39.5682C123.901 38.3352 122.21 36.5504 120.967 34.2138C119.734 31.8771 119.118 29.0483 119.118 25.7273C119.118 22.3963 119.744 19.5625 120.997 17.2259C122.25 14.8892 123.95 13.1094 126.098 11.8864C128.246 10.6534 130.662 10.0369 133.347 10.0369C135.116 10.0369 136.757 10.2855 138.268 10.7827C139.79 11.2798 141.137 12.0057 142.31 12.9602C143.484 13.9048 144.438 15.0632 145.174 16.4354C145.92 17.8075 146.397 19.3786 146.606 21.1484ZM151.237 10.4545H159.201L167.613 30.9773H167.971L176.383 10.4545H184.348V41H178.083V21.1186H177.83L169.925 40.8509H165.659L157.755 21.044H157.501V41H151.237V10.4545ZM189.669 41V10.4545H201.72C204.036 10.4545 206.01 10.897 207.641 11.782C209.271 12.657 210.514 13.875 211.369 15.4361C212.235 16.9872 212.667 18.777 212.667 20.8054C212.667 22.8338 212.23 24.6236 211.355 26.1747C210.48 27.7259 209.212 28.9339 207.551 29.799C205.901 30.6641 203.902 31.0966 201.556 31.0966H193.874V25.9212H200.512C201.754 25.9212 202.779 25.7074 203.584 25.2798C204.399 24.8423 205.006 24.2408 205.404 23.4751C205.811 22.6996 206.015 21.8097 206.015 20.8054C206.015 19.7912 205.811 18.9062 205.404 18.1506C205.006 17.3849 204.399 16.7933 203.584 16.3757C202.769 15.9482 201.735 15.7344 200.482 15.7344H196.127V41H189.669ZM215.699 15.7791V10.4545H240.785V15.7791H231.434V41H225.05V15.7791H215.699ZM254.458 41V36.3466L265.331 26.2791C266.256 25.3842 267.031 24.5788 267.658 23.8629C268.294 23.147 268.776 22.446 269.105 21.7599C269.433 21.0639 269.597 20.3132 269.597 19.5078C269.597 18.6129 269.393 17.8423 268.985 17.196C268.578 16.5398 268.021 16.0376 267.315 15.6896C266.609 15.3317 265.808 15.1527 264.914 15.1527C263.979 15.1527 263.164 15.3416 262.468 15.7195C261.771 16.0973 261.235 16.6392 260.857 17.3452C260.479 18.0511 260.29 18.8913 260.29 19.8658H254.16C254.16 17.8672 254.612 16.1321 255.517 14.6605C256.422 13.1889 257.69 12.0504 259.32 11.245C260.951 10.4396 262.83 10.0369 264.958 10.0369C267.146 10.0369 269.05 10.4247 270.671 11.2003C272.301 11.9659 273.569 13.0298 274.474 14.392C275.379 15.7543 275.831 17.3153 275.831 19.0753C275.831 20.2287 275.602 21.3672 275.145 22.4908C274.698 23.6143 273.897 24.8622 272.744 26.2344C271.59 27.5966 269.965 29.2322 267.867 31.1413L263.407 35.5114V35.7202H276.234V41H254.458ZM292.636 41.4176C291.065 41.4077 289.549 41.1442 288.087 40.6271C286.636 40.1101 285.333 39.2699 284.18 38.1065C283.026 36.9432 282.112 35.402 281.435 33.483C280.769 31.5639 280.436 29.2074 280.436 26.4134C280.446 23.848 280.739 21.5561 281.316 19.5376C281.903 17.5092 282.738 15.7891 283.822 14.3771C284.915 12.9652 286.223 11.8913 287.744 11.1555C289.266 10.4098 290.971 10.0369 292.86 10.0369C294.898 10.0369 296.698 10.4347 298.259 11.2301C299.82 12.0156 301.073 13.0845 302.018 14.4368C302.972 15.7891 303.549 17.3054 303.748 18.9858H297.379C297.131 17.9219 296.609 17.0866 295.813 16.4801C295.018 15.8736 294.033 15.5703 292.86 15.5703C290.871 15.5703 289.36 16.4354 288.326 18.1655C287.302 19.8956 286.78 22.2472 286.76 25.2202H286.969C287.426 24.3153 288.043 23.5447 288.818 22.9084C289.604 22.2621 290.494 21.7699 291.488 21.4318C292.492 21.0838 293.551 20.9098 294.665 20.9098C296.474 20.9098 298.085 21.3374 299.497 22.1925C300.909 23.0376 302.023 24.201 302.838 25.6825C303.653 27.1641 304.061 28.8594 304.061 30.7685C304.061 32.8366 303.579 34.6761 302.614 36.2869C301.66 37.8977 300.322 39.1605 298.602 40.0753C296.892 40.9801 294.903 41.4276 292.636 41.4176ZM292.607 36.3466C293.601 36.3466 294.491 36.108 295.276 35.6307C296.062 35.1534 296.678 34.5071 297.126 33.6918C297.573 32.8764 297.797 31.9616 297.797 30.9474C297.797 29.9332 297.573 29.0234 297.126 28.218C296.688 27.4126 296.082 26.7713 295.306 26.294C294.531 25.8168 293.646 25.5781 292.651 25.5781C291.906 25.5781 291.214 25.7173 290.578 25.9957C289.952 26.2741 289.4 26.6619 288.923 27.1591C288.455 27.6562 288.087 28.233 287.819 28.8892C287.55 29.5355 287.416 30.2266 287.416 30.9624C287.416 31.9467 287.64 32.8466 288.087 33.6619C288.545 34.4773 289.161 35.1286 289.937 35.6158C290.722 36.103 291.612 36.3466 292.607 36.3466ZM319.93 41.4176C317.703 41.4176 315.719 41.0348 313.979 40.2692C312.249 39.4936 310.882 38.4297 309.878 37.0774C308.884 35.7152 308.371 34.1442 308.342 32.3643H314.844C314.884 33.1101 315.128 33.7663 315.575 34.3331C316.033 34.8899 316.639 35.3224 317.395 35.6307C318.151 35.9389 319.001 36.093 319.945 36.093C320.93 36.093 321.8 35.919 322.555 35.571C323.311 35.223 323.903 34.7408 324.33 34.1243C324.758 33.5078 324.972 32.7969 324.972 31.9915C324.972 31.1761 324.743 30.4553 324.286 29.8288C323.838 29.1925 323.192 28.6953 322.347 28.3374C321.511 27.9794 320.517 27.8004 319.364 27.8004H316.515V23.0575H319.364C320.338 23.0575 321.198 22.8885 321.944 22.5504C322.7 22.2124 323.286 21.745 323.704 21.1484C324.121 20.5419 324.33 19.8359 324.33 19.0305C324.33 18.2649 324.146 17.5938 323.778 17.017C323.42 16.4304 322.913 15.973 322.257 15.6449C321.611 15.3168 320.855 15.1527 319.99 15.1527C319.115 15.1527 318.315 15.3118 317.589 15.63C316.863 15.9382 316.281 16.3807 315.844 16.9574C315.406 17.5341 315.173 18.2102 315.143 18.9858H308.953C308.983 17.2259 309.485 15.6747 310.46 14.3324C311.434 12.9901 312.746 11.941 314.397 11.1854C316.058 10.4197 317.932 10.0369 320.02 10.0369C322.128 10.0369 323.972 10.4197 325.553 11.1854C327.134 11.951 328.362 12.9851 329.237 14.2876C330.122 15.5803 330.56 17.032 330.55 18.6428C330.56 20.353 330.028 21.7798 328.954 22.9233C327.89 24.0668 326.503 24.7926 324.793 25.1009V25.3395C327.04 25.6278 328.75 26.4084 329.923 27.6811C331.107 28.9439 331.693 30.5249 331.683 32.424C331.693 34.1641 331.191 35.7102 330.177 37.0625C329.173 38.4148 327.786 39.4787 326.016 40.2543C324.246 41.0298 322.217 41.4176 319.93 41.4176Z" fill="#25182D"/>
<path d="M120.17 86V59.8182H135.972V62.6307H123.341V71.4773H135.153V74.2898H123.341V83.1875H136.176V86H120.17ZM143.527 66.3636L148.232 74.392L152.936 66.3636H156.413L150.072 76.1818L156.413 86H152.936L148.232 78.3807L143.527 86H140.05L146.288 76.1818L140.05 66.3636H143.527ZM166.497 86.4602C165.252 86.4602 164.123 86.2259 163.109 85.7571C162.095 85.2798 161.289 84.5938 160.693 83.6989C160.096 82.7955 159.798 81.7045 159.798 80.4261C159.798 79.3011 160.02 78.3892 160.463 77.6903C160.906 76.983 161.498 76.429 162.24 76.0284C162.981 75.6278 163.799 75.3295 164.694 75.1335C165.598 74.929 166.505 74.767 167.417 74.6477C168.61 74.4943 169.578 74.3793 170.319 74.3026C171.069 74.2173 171.615 74.0767 171.956 73.8807C172.305 73.6847 172.48 73.3437 172.48 72.858V72.7557C172.48 71.4943 172.135 70.5142 171.444 69.8153C170.762 69.1165 169.727 68.767 168.338 68.767C166.897 68.767 165.768 69.0824 164.95 69.7131C164.132 70.3437 163.556 71.017 163.224 71.733L160.36 70.7102C160.872 69.517 161.554 68.5881 162.406 67.9233C163.267 67.25 164.204 66.7812 165.218 66.517C166.241 66.2443 167.247 66.108 168.235 66.108C168.866 66.108 169.591 66.1847 170.409 66.3381C171.235 66.483 172.032 66.7855 172.799 67.2457C173.575 67.706 174.218 68.4006 174.73 69.3295C175.241 70.2585 175.497 71.5028 175.497 73.0625V86H172.48V83.3409H172.326C172.122 83.767 171.781 84.223 171.304 84.7088C170.826 85.1946 170.191 85.608 169.399 85.9489C168.606 86.2898 167.639 86.4602 166.497 86.4602ZM166.957 83.75C168.15 83.75 169.156 83.5156 169.974 83.0469C170.801 82.5781 171.423 81.973 171.841 81.2315C172.267 80.4901 172.48 79.7102 172.48 78.892V76.1307C172.352 76.2841 172.071 76.4247 171.636 76.5526C171.21 76.6719 170.716 76.7784 170.153 76.8722C169.599 76.9574 169.058 77.0341 168.529 77.1023C168.01 77.1619 167.588 77.2131 167.264 77.2557C166.48 77.358 165.747 77.5241 165.065 77.7543C164.392 77.9759 163.846 78.3125 163.429 78.7642C163.02 79.2074 162.815 79.8125 162.815 80.5795C162.815 81.6278 163.203 82.4205 163.978 82.9574C164.762 83.4858 165.755 83.75 166.957 83.75ZM181.004 86V66.3636H183.918V69.4318H184.174C184.583 68.3835 185.244 67.5696 186.156 66.9901C187.067 66.402 188.163 66.108 189.441 66.108C190.737 66.108 191.815 66.402 192.675 66.9901C193.545 67.5696 194.222 68.3835 194.708 69.4318H194.913C195.415 68.4176 196.17 67.6122 197.175 67.0156C198.181 66.4105 199.387 66.108 200.793 66.108C202.549 66.108 203.985 66.6577 205.102 67.7571C206.218 68.848 206.776 70.5483 206.776 72.858V86H203.759V72.858C203.759 71.4091 203.363 70.3736 202.57 69.7514C201.778 69.1293 200.844 68.8182 199.771 68.8182C198.39 68.8182 197.32 69.2358 196.562 70.071C195.803 70.8977 195.424 71.946 195.424 73.2159V86H192.356V72.5511C192.356 71.4347 191.994 70.5355 191.269 69.8537C190.545 69.1634 189.612 68.8182 188.469 68.8182C187.685 68.8182 186.952 69.027 186.271 69.4446C185.597 69.8622 185.052 70.4418 184.634 71.1832C184.225 71.9162 184.021 72.7642 184.021 73.7273V86H181.004ZM221.395 62.6307V59.8182H241.031V62.6307H232.798V86H229.628V62.6307H221.395ZM243.476 86V66.3636H246.391V69.3295H246.596C246.953 68.358 247.601 67.5696 248.539 66.9645C249.476 66.3594 250.533 66.0568 251.709 66.0568C251.931 66.0568 252.208 66.0611 252.54 66.0696C252.873 66.0781 253.124 66.0909 253.294 66.108V69.1761C253.192 69.1506 252.958 69.1122 252.591 69.0611C252.233 69.0014 251.854 68.9716 251.453 68.9716C250.499 68.9716 249.647 69.1719 248.897 69.5724C248.155 69.9645 247.567 70.5099 247.132 71.2088C246.706 71.8991 246.493 72.6875 246.493 73.5739V86H243.476ZM262.649 86.4602C261.405 86.4602 260.276 86.2259 259.261 85.7571C258.247 85.2798 257.442 84.5938 256.845 83.6989C256.249 82.7955 255.95 81.7045 255.95 80.4261C255.95 79.3011 256.172 78.3892 256.615 77.6903C257.058 76.983 257.651 76.429 258.392 76.0284C259.134 75.6278 259.952 75.3295 260.847 75.1335C261.75 74.929 262.658 74.767 263.57 74.6477C264.763 74.4943 265.73 74.3793 266.472 74.3026C267.222 74.2173 267.767 74.0767 268.108 73.8807C268.457 73.6847 268.632 73.3437 268.632 72.858V72.7557C268.632 71.4943 268.287 70.5142 267.597 69.8153C266.915 69.1165 265.879 68.767 264.49 68.767C263.05 68.767 261.92 69.0824 261.102 69.7131C260.284 70.3437 259.709 71.017 259.376 71.733L256.513 70.7102C257.024 69.517 257.706 68.5881 258.558 67.9233C259.419 67.25 260.357 66.7812 261.371 66.517C262.393 66.2443 263.399 66.108 264.388 66.108C265.018 66.108 265.743 66.1847 266.561 66.3381C267.388 66.483 268.185 66.7855 268.952 67.2457C269.727 67.706 270.371 68.4006 270.882 69.3295C271.393 70.2585 271.649 71.5028 271.649 73.0625V86H268.632V83.3409H268.479C268.274 83.767 267.933 84.223 267.456 84.7088C266.979 85.1946 266.344 85.608 265.551 85.9489C264.759 86.2898 263.791 86.4602 262.649 86.4602ZM263.109 83.75C264.303 83.75 265.308 83.5156 266.126 83.0469C266.953 82.5781 267.575 81.973 267.993 81.2315C268.419 80.4901 268.632 79.7102 268.632 78.892V76.1307C268.504 76.2841 268.223 76.4247 267.788 76.5526C267.362 76.6719 266.868 76.7784 266.305 76.8722C265.751 76.9574 265.21 77.0341 264.682 77.1023C264.162 77.1619 263.74 77.2131 263.416 77.2557C262.632 77.358 261.899 77.5241 261.217 77.7543C260.544 77.9759 259.999 78.3125 259.581 78.7642C259.172 79.2074 258.967 79.8125 258.967 80.5795C258.967 81.6278 259.355 82.4205 260.131 82.9574C260.915 83.4858 261.908 83.75 263.109 83.75ZM277.156 86V66.3636H280.173V86H277.156ZM278.69 63.0909C278.102 63.0909 277.595 62.8906 277.169 62.4901C276.751 62.0895 276.542 61.608 276.542 61.0455C276.542 60.483 276.751 60.0014 277.169 59.6009C277.595 59.2003 278.102 59 278.69 59C279.278 59 279.781 59.2003 280.199 59.6009C280.625 60.0014 280.838 60.483 280.838 61.0455C280.838 61.608 280.625 62.0895 280.199 62.4901C279.781 62.8906 279.278 63.0909 278.69 63.0909ZM288.716 74.1875V86H285.699V66.3636H288.614V69.4318H288.869C289.33 68.4347 290.028 67.6335 290.966 67.0284C291.903 66.4148 293.114 66.108 294.597 66.108C295.926 66.108 297.089 66.3807 298.087 66.9261C299.084 67.4631 299.859 68.2812 300.413 69.3807C300.967 70.4716 301.244 71.8523 301.244 73.5227V86H298.227V73.7273C298.227 72.1847 297.827 70.983 297.026 70.1222C296.224 69.2528 295.125 68.8182 293.727 68.8182C292.764 68.8182 291.903 69.027 291.145 69.4446C290.395 69.8622 289.803 70.4716 289.368 71.2727C288.933 72.0739 288.716 73.0455 288.716 74.1875ZM314.99 86.4091C313.098 86.4091 311.466 85.9915 310.094 85.1562C308.73 84.3125 307.678 83.1364 306.936 81.6278C306.203 80.1108 305.837 78.3466 305.837 76.3352C305.837 74.3239 306.203 72.5511 306.936 71.017C307.678 69.4744 308.709 68.2727 310.03 67.4119C311.36 66.5426 312.911 66.108 314.684 66.108C315.706 66.108 316.716 66.2784 317.713 66.6193C318.711 66.9602 319.618 67.5142 320.436 68.2812C321.255 69.0398 321.907 70.0455 322.392 71.2983C322.878 72.5511 323.121 74.0937 323.121 75.9261V77.2045H307.985V74.5966H320.053C320.053 73.4886 319.831 72.5 319.388 71.6307C318.953 70.7614 318.331 70.0753 317.522 69.5724C316.721 69.0696 315.775 68.8182 314.684 68.8182C313.482 68.8182 312.442 69.1165 311.564 69.7131C310.695 70.3011 310.026 71.0682 309.557 72.0142C309.088 72.9602 308.854 73.9744 308.854 75.0568V76.7955C308.854 78.2784 309.11 79.5355 309.621 80.5668C310.141 81.5895 310.861 82.3693 311.782 82.9062C312.702 83.4347 313.772 83.6989 314.99 83.6989C315.783 83.6989 316.499 83.5881 317.138 83.3665C317.786 83.1364 318.344 82.7955 318.813 82.3438C319.282 81.8835 319.644 81.3125 319.9 80.6307L322.814 81.4489C322.507 82.4375 321.992 83.3068 321.267 84.0568C320.543 84.7983 319.648 85.3778 318.583 85.7955C317.517 86.2045 316.32 86.4091 314.99 86.4091ZM327.711 86V66.3636H330.625V69.3295H330.83C331.188 68.358 331.836 67.5696 332.773 66.9645C333.711 66.3594 334.767 66.0568 335.944 66.0568C336.165 66.0568 336.442 66.0611 336.775 66.0696C337.107 66.0781 337.358 66.0909 337.529 66.108V69.1761C337.426 69.1506 337.192 69.1122 336.826 69.0611C336.468 69.0014 336.088 68.9716 335.688 68.9716C334.733 68.9716 333.881 69.1719 333.131 69.5724C332.39 69.9645 331.801 70.5099 331.367 71.2088C330.941 71.8991 330.728 72.6875 330.728 73.5739V86H327.711Z" fill="#25182D"/>
<path fill-rule="evenodd" clip-rule="evenodd" d="M28.9928 11.0001C19.0614 11.0001 10.9687 18.8724 10.6145 28.7173C4.29802 33.6484 0 40.191 0 49.5132C0 56.6573 2.59623 61.4768 6.42108 65.9993C6.77662 77.0014 15.8072 85.812 26.8963 85.812C33.7275 85.812 39.7779 82.4686 43.5 77.3282C47.2222 82.4686 53.2726 85.812 60.1038 85.812C71.193 85.812 80.2236 77.0014 80.579 65.9993C84.404 61.4768 87 56.6573 87 49.5132C87 40.191 82.7021 33.6484 76.3856 28.7173C76.0314 18.8724 67.939 11.0001 58.0073 11.0001C52.1126 11.0001 46.8656 13.7735 43.5 18.0867C40.1345 13.7735 34.8875 11.0001 28.9928 11.0001ZM18.3692 29.3904C18.3692 23.5232 23.1256 18.7669 28.9928 18.7669C34.86 18.7669 39.6163 23.5232 39.6163 29.3904L39.6162 41.336C39.5147 42.5147 38.8398 44.9858 37.2901 47.2456C35.7544 49.485 33.6211 51.1637 30.697 51.4901C28.5655 51.728 27.0304 53.6488 27.2683 55.7803C27.5063 57.9118 29.427 59.4469 31.5585 59.209C34.8059 58.8465 37.4731 57.614 39.6161 55.9775L39.616 65.3254C39.616 72.3506 33.9211 78.0452 26.8963 78.0452C19.8715 78.0452 14.177 72.3506 14.177 65.3254V65.2076C14.3977 64.0474 14.8434 62.6911 15.4451 61.4676C16.0928 60.1503 16.7535 59.3275 17.1969 58.9773C18.8802 57.6482 19.1673 55.2062 17.8382 53.5229C16.5091 51.8397 14.0671 51.5526 12.3838 52.8816C11.1321 53.8701 10.1106 55.1805 9.30127 56.5234C8.2776 54.4552 7.76679 52.2546 7.76679 49.5132C7.76679 44.4417 9.49407 40.5592 12.6809 37.2569C13.3721 38.4538 14.1791 39.4906 15.0239 40.3675C16.9959 42.4146 19.3754 43.794 21.3257 44.2386C23.4168 44.7154 25.4984 43.4067 25.9752 41.3156C26.4519 39.2245 25.1432 37.1429 23.0521 36.6661C23.0533 36.6664 23.0536 36.6666 23.0521 36.6661C23.0415 36.6632 22.9602 36.6406 22.8116 36.5767C22.6499 36.5071 22.4419 36.4029 22.2008 36.2572C21.7161 35.9641 21.1572 35.5393 20.6174 34.979C19.5638 33.8853 18.6325 32.334 18.3692 30.2476V29.3904ZM55.4416 59.209C52.1942 58.8465 49.527 57.614 47.384 55.9775L47.3841 65.3254C47.3841 72.3506 53.079 78.0452 60.1038 78.0452C67.1288 78.0452 72.8228 72.3506 72.8228 65.3254V65.2076C72.6022 64.0474 72.1567 62.6911 71.5552 61.4676C70.9072 60.1503 70.2467 59.3275 69.803 58.9773C68.1198 57.6482 67.8327 55.2062 69.1618 53.5229C70.4909 51.8397 72.9327 51.5526 74.6166 52.8816C75.868 53.8701 76.8895 55.1805 77.6991 56.5234C78.7224 54.4552 79.2332 52.2546 79.2332 49.5132C79.2332 44.442 77.5065 40.5595 74.3196 37.2574C73.6286 38.454 72.8215 39.4908 71.9771 40.3675C70.005 42.4146 67.6252 43.794 65.6754 44.2386C63.584 44.7154 61.5024 43.4067 61.0257 41.3156C60.549 39.2245 61.8576 37.1429 63.9487 36.6661C63.9593 36.6632 64.0407 36.6406 64.1892 36.5767C64.3507 36.5071 64.5589 36.4029 64.8 36.2572C65.2846 35.9641 65.8438 35.5393 66.3838 34.979C67.4363 33.8864 68.3665 32.337 68.6312 30.2537V29.3904C68.6312 23.5232 63.8748 18.7669 58.0073 18.7669C52.1401 18.7669 47.3838 23.5232 47.3838 29.3904L47.3839 41.3361C47.4854 42.5148 48.1603 44.9858 49.71 47.2456C51.2457 49.485 53.379 51.1637 56.3031 51.4901C58.4346 51.728 59.9697 53.6488 59.7318 55.7803C59.4939 57.9118 57.5731 59.4469 55.4416 59.209Z" fill="#6D2F75"/>
</svg>
