<svg width="370" height="95" viewBox="0 0 370 95" fill="none" xmlns="http://www.w3.org/2000/svg">
<path d="M8 44H108" stroke="#4A6572" stroke-width="4" stroke-linecap="round" stroke-linejoin="round"/>
<path d="M8 50C11.3137 50 14 47.3137 14 44C14 40.6863 11.3137 38 8 38C4.68629 38 2 40.6863 2 44C2 47.3137 4.68629 50 8 50Z" fill="#4A6572" stroke="#4A6572" stroke-width="4" stroke-linecap="round" stroke-linejoin="round"/>
<path d="M58 50C61.3137 50 64 47.3137 64 44C64 40.6863 61.3137 38 58 38C54.6863 38 52 40.6863 52 44C52 47.3137 54.6863 50 58 50Z" fill="#5782C2" stroke="#5782C2" stroke-width="4" stroke-linecap="round" stroke-linejoin="round"/>
<path d="M108 50C111.314 50 114 47.3137 114 44C114 40.6863 111.314 38 108 38C104.686 38 102 40.6863 102 44C102 47.3137 104.686 50 108 50Z" fill="#4A6572" stroke="#4A6572" stroke-width="4" stroke-linecap="round" stroke-linejoin="round"/>
<path d="M58 44L88 14H108" stroke="#4A6572" stroke-width="4" stroke-linecap="round" stroke-linejoin="round"/>
<path d="M58 44L88 74H108" stroke="#4A6572" stroke-width="4" stroke-linecap="round" stroke-linejoin="round" stroke-dasharray="8 6"/>
<path d="M108 18C110.209 18 112 16.2091 112 14C112 11.7909 110.209 10 108 10C105.791 10 104 11.7909 104 14C104 16.2091 105.791 18 108 18Z" fill="white" stroke="#4A6572" stroke-width="4" stroke-linecap="round" stroke-linejoin="round"/>
<path d="M108 78C110.209 78 112 76.2091 112 74C112 71.7909 110.209 70 108 70C105.791 70 104 71.7909 104 74C104 76.2091 105.791 78 108 78Z" fill="white" stroke="#4A6572" stroke-width="4" stroke-linecap="round" stroke-linejoin="round"/>
<path d="M177.606 21.1484H171.073C170.954 20.3033 170.71 19.5526 170.342 18.8963C169.974 18.2301 169.502 17.6634 168.925 17.196C168.349 16.7287 167.683 16.3707 166.927 16.1222C166.181 15.8736 165.371 15.7493 164.496 15.7493C162.915 15.7493 161.538 16.142 160.364 16.9276C159.191 17.7031 158.281 18.8366 157.635 20.3281C156.989 21.8097 156.665 23.6094 156.665 25.7273C156.665 27.9048 156.989 29.7344 157.635 31.2159C158.291 32.6974 159.206 33.8161 160.379 34.5717C161.553 35.3274 162.91 35.7053 164.451 35.7053C165.316 35.7053 166.116 35.5909 166.852 35.3622C167.598 35.1335 168.259 34.8004 168.836 34.3629C169.413 33.9155 169.89 33.3736 170.268 32.7372C170.656 32.1009 170.924 31.375 171.073 30.5597L177.606 30.5895C177.437 31.9915 177.014 33.3438 176.338 34.6463C175.672 35.9389 174.772 37.0973 173.638 38.1214C172.515 39.1357 171.173 39.9411 169.612 40.5376C168.06 41.1243 166.305 41.4176 164.347 41.4176C161.622 41.4176 159.186 40.8011 157.038 39.5682C154.901 38.3352 153.21 36.5504 151.967 34.2138C150.734 31.8771 150.118 29.0483 150.118 25.7273C150.118 22.3963 150.744 19.5625 151.997 17.2259C153.25 14.8892 154.95 13.1094 157.098 11.8864C159.246 10.6534 161.662 10.0369 164.347 10.0369C166.116 10.0369 167.757 10.2855 169.268 10.7827C170.79 11.2798 172.137 12.0057 173.31 12.9602C174.484 13.9048 175.438 15.0632 176.174 16.4354C176.92 17.8075 177.397 19.3786 177.606 21.1484ZM182.237 10.4545H190.201L198.613 30.9773H198.971L207.383 10.4545H215.348V41H209.083V21.1186H208.83L200.925 40.8509H196.659L188.755 21.044H188.501V41H182.237V10.4545ZM220.669 41V10.4545H232.72C235.036 10.4545 237.01 10.897 238.641 11.782C240.271 12.657 241.514 13.875 242.369 15.4361C243.235 16.9872 243.667 18.777 243.667 20.8054C243.667 22.8338 243.23 24.6236 242.355 26.1747C241.48 27.7259 240.212 28.9339 238.551 29.799C236.901 30.6641 234.902 31.0966 232.556 31.0966H224.874V25.9212H231.512C232.754 25.9212 233.779 25.7074 234.584 25.2798C235.399 24.8423 236.006 24.2408 236.404 23.4751C236.811 22.6996 237.015 21.8097 237.015 20.8054C237.015 19.7912 236.811 18.9062 236.404 18.1506C236.006 17.3849 235.399 16.7933 234.584 16.3757C233.769 15.9482 232.735 15.7344 231.482 15.7344H227.127V41H220.669ZM246.699 15.7791V10.4545H271.785V15.7791H262.434V41H256.05V15.7791H246.699ZM285.458 41V36.3466L296.331 26.2791C297.256 25.3842 298.031 24.5788 298.658 23.8629C299.294 23.147 299.776 22.446 300.105 21.7599C300.433 21.0639 300.597 20.3132 300.597 19.5078C300.597 18.6129 300.393 17.8423 299.985 17.196C299.578 16.5398 299.021 16.0376 298.315 15.6896C297.609 15.3317 296.808 15.1527 295.914 15.1527C294.979 15.1527 294.164 15.3416 293.468 15.7195C292.771 16.0973 292.235 16.6392 291.857 17.3452C291.479 18.0511 291.29 18.8913 291.29 19.8658H285.16C285.16 17.8672 285.612 16.1321 286.517 14.6605C287.422 13.1889 288.69 12.0504 290.32 11.245C291.951 10.4396 293.83 10.0369 295.958 10.0369C298.146 10.0369 300.05 10.4247 301.671 11.2003C303.301 11.9659 304.569 13.0298 305.474 14.392C306.379 15.7543 306.831 17.3153 306.831 19.0753C306.831 20.2287 306.602 21.3672 306.145 22.4908C305.698 23.6143 304.897 24.8622 303.744 26.2344C302.59 27.5966 300.965 29.2322 298.867 31.1413L294.407 35.5114V35.7202H307.234V41H285.458ZM323.89 41.6712C321.325 41.6612 319.117 41.0298 317.268 39.777C315.428 38.5241 314.011 36.7095 313.017 34.3331C312.033 31.9567 311.545 29.098 311.555 25.7571C311.555 22.4261 312.048 19.5874 313.032 17.2408C314.026 14.8942 315.443 13.1094 317.283 11.8864C319.132 10.6534 321.335 10.0369 323.89 10.0369C326.445 10.0369 328.643 10.6534 330.482 11.8864C332.332 13.1193 333.754 14.9091 334.748 17.2557C335.742 19.5923 336.234 22.4261 336.224 25.7571C336.224 29.108 335.727 31.9716 334.733 34.348C333.749 36.7244 332.337 38.5391 330.497 39.7919C328.658 41.0447 326.455 41.6712 323.89 41.6712ZM323.89 36.3168C325.64 36.3168 327.037 35.4368 328.081 33.6768C329.125 31.9169 329.642 29.277 329.632 25.7571C329.632 23.4403 329.393 21.5114 328.916 19.9702C328.449 18.429 327.783 17.2706 326.918 16.495C326.062 15.7195 325.053 15.3317 323.89 15.3317C322.15 15.3317 320.758 16.2017 319.714 17.9418C318.67 19.6818 318.143 22.2869 318.133 25.7571C318.133 28.1037 318.366 30.0625 318.834 31.6335C319.311 33.1946 319.982 34.3679 320.847 35.1534C321.712 35.929 322.727 36.3168 323.89 36.3168ZM354.118 10.4545V41H347.66V16.5845H347.481L340.486 20.9695V15.2422L348.048 10.4545H354.118Z" fill="#4A6572"/>
<path d="M151.17 86V59.8182H166.972V62.6307H154.341V71.4773H166.153V74.2898H154.341V83.1875H167.176V86H151.17ZM174.527 66.3636L179.232 74.392L183.936 66.3636H187.413L181.072 76.1818L187.413 86H183.936L179.232 78.3807L174.527 86H171.05L177.288 76.1818L171.05 66.3636H174.527ZM197.497 86.4602C196.252 86.4602 195.123 86.2259 194.109 85.7571C193.095 85.2798 192.289 84.5938 191.693 83.6989C191.096 82.7955 190.798 81.7045 190.798 80.4261C190.798 79.3011 191.02 78.3892 191.463 77.6903C191.906 76.983 192.498 76.429 193.24 76.0284C193.981 75.6278 194.799 75.3295 195.694 75.1335C196.598 74.929 197.505 74.767 198.417 74.6477C199.61 74.4943 200.578 74.3793 201.319 74.3026C202.069 74.2173 202.615 74.0767 202.956 73.8807C203.305 73.6847 203.48 73.3437 203.48 72.858V72.7557C203.48 71.4943 203.135 70.5142 202.444 69.8153C201.762 69.1165 200.727 68.767 199.338 68.767C197.897 68.767 196.768 69.0824 195.95 69.7131C195.132 70.3437 194.556 71.017 194.224 71.733L191.36 70.7102C191.872 69.517 192.554 68.5881 193.406 67.9233C194.267 67.25 195.204 66.7812 196.218 66.517C197.241 66.2443 198.247 66.108 199.235 66.108C199.866 66.108 200.591 66.1847 201.409 66.3381C202.235 66.483 203.032 66.7855 203.799 67.2457C204.575 67.706 205.218 68.4006 205.73 69.3295C206.241 70.2585 206.497 71.5028 206.497 73.0625V86H203.48V83.3409H203.326C203.122 83.767 202.781 84.223 202.304 84.7088C201.826 85.1946 201.191 85.608 200.399 85.9489C199.606 86.2898 198.639 86.4602 197.497 86.4602ZM197.957 83.75C199.15 83.75 200.156 83.5156 200.974 83.0469C201.801 82.5781 202.423 81.973 202.841 81.2315C203.267 80.4901 203.48 79.7102 203.48 78.892V76.1307C203.352 76.2841 203.071 76.4247 202.636 76.5526C202.21 76.6719 201.716 76.7784 201.153 76.8722C200.599 76.9574 200.058 77.0341 199.529 77.1023C199.01 77.1619 198.588 77.2131 198.264 77.2557C197.48 77.358 196.747 77.5241 196.065 77.7543C195.392 77.9759 194.846 78.3125 194.429 78.7642C194.02 79.2074 193.815 79.8125 193.815 80.5795C193.815 81.6278 194.203 82.4205 194.978 82.9574C195.762 83.4858 196.755 83.75 197.957 83.75ZM212.004 86V66.3636H214.918V69.4318H215.174C215.583 68.3835 216.244 67.5696 217.156 66.9901C218.067 66.402 219.163 66.108 220.441 66.108C221.737 66.108 222.815 66.402 223.675 66.9901C224.545 67.5696 225.222 68.3835 225.708 69.4318H225.913C226.415 68.4176 227.17 67.6122 228.175 67.0156C229.181 66.4105 230.387 66.108 231.793 66.108C233.549 66.108 234.985 66.6577 236.102 67.7571C237.218 68.848 237.776 70.5483 237.776 72.858V86H234.759V72.858C234.759 71.4091 234.363 70.3736 233.57 69.7514C232.778 69.1293 231.844 68.8182 230.771 68.8182C229.39 68.8182 228.32 69.2358 227.562 70.071C226.803 70.8977 226.424 71.946 226.424 73.2159V86H223.356V72.5511C223.356 71.4347 222.994 70.5355 222.269 69.8537C221.545 69.1634 220.612 68.8182 219.469 68.8182C218.685 68.8182 217.952 69.027 217.271 69.4446C216.597 69.8622 216.052 70.4418 215.634 71.1832C215.225 71.9162 215.021 72.7642 215.021 73.7273V86H212.004ZM252.395 62.6307V59.8182H272.031V62.6307H263.798V86H260.628V62.6307H252.395ZM274.476 86V66.3636H277.391V69.3295H277.596C277.953 68.358 278.601 67.5696 279.539 66.9645C280.476 66.3594 281.533 66.0568 282.709 66.0568C282.931 66.0568 283.208 66.0611 283.54 66.0696C283.873 66.0781 284.124 66.0909 284.294 66.108V69.1761C284.192 69.1506 283.958 69.1122 283.591 69.0611C283.233 69.0014 282.854 68.9716 282.453 68.9716C281.499 68.9716 280.647 69.1719 279.897 69.5724C279.155 69.9645 278.567 70.5099 278.132 71.2088C277.706 71.8991 277.493 72.6875 277.493 73.5739V86H274.476ZM293.649 86.4602C292.405 86.4602 291.276 86.2259 290.261 85.7571C289.247 85.2798 288.442 84.5938 287.845 83.6989C287.249 82.7955 286.95 81.7045 286.95 80.4261C286.95 79.3011 287.172 78.3892 287.615 77.6903C288.058 76.983 288.651 76.429 289.392 76.0284C290.134 75.6278 290.952 75.3295 291.847 75.1335C292.75 74.929 293.658 74.767 294.57 74.6477C295.763 74.4943 296.73 74.3793 297.472 74.3026C298.222 74.2173 298.767 74.0767 299.108 73.8807C299.457 73.6847 299.632 73.3437 299.632 72.858V72.7557C299.632 71.4943 299.287 70.5142 298.597 69.8153C297.915 69.1165 296.879 68.767 295.49 68.767C294.05 68.767 292.92 69.0824 292.102 69.7131C291.284 70.3437 290.709 71.017 290.376 71.733L287.513 70.7102C288.024 69.517 288.706 68.5881 289.558 67.9233C290.419 67.25 291.357 66.7812 292.371 66.517C293.393 66.2443 294.399 66.108 295.388 66.108C296.018 66.108 296.743 66.1847 297.561 66.3381C298.388 66.483 299.185 66.7855 299.952 67.2457C300.727 67.706 301.371 68.4006 301.882 69.3295C302.393 70.2585 302.649 71.5028 302.649 73.0625V86H299.632V83.3409H299.479C299.274 83.767 298.933 84.223 298.456 84.7088C297.979 85.1946 297.344 85.608 296.551 85.9489C295.759 86.2898 294.791 86.4602 293.649 86.4602ZM294.109 83.75C295.303 83.75 296.308 83.5156 297.126 83.0469C297.953 82.5781 298.575 81.973 298.993 81.2315C299.419 80.4901 299.632 79.7102 299.632 78.892V76.1307C299.504 76.2841 299.223 76.4247 298.788 76.5526C298.362 76.6719 297.868 76.7784 297.305 76.8722C296.751 76.9574 296.21 77.0341 295.682 77.1023C295.162 77.1619 294.74 77.2131 294.416 77.2557C293.632 77.358 292.899 77.5241 292.217 77.7543C291.544 77.9759 290.999 78.3125 290.581 78.7642C290.172 79.2074 289.967 79.8125 289.967 80.5795C289.967 81.6278 290.355 82.4205 291.131 82.9574C291.915 83.4858 292.908 83.75 294.109 83.75ZM308.156 86V66.3636H311.173V86H308.156ZM309.69 63.0909C309.102 63.0909 308.595 62.8906 308.169 62.4901C307.751 62.0895 307.542 61.608 307.542 61.0455C307.542 60.483 307.751 60.0014 308.169 59.6009C308.595 59.2003 309.102 59 309.69 59C310.278 59 310.781 59.2003 311.199 59.6009C311.625 60.0014 311.838 60.483 311.838 61.0455C311.838 61.608 311.625 62.0895 311.199 62.4901C310.781 62.8906 310.278 63.0909 309.69 63.0909ZM319.716 74.1875V86H316.699V66.3636H319.614V69.4318H319.869C320.33 68.4347 321.028 67.6335 321.966 67.0284C322.903 66.4148 324.114 66.108 325.597 66.108C326.926 66.108 328.089 66.3807 329.087 66.9261C330.084 67.4631 330.859 68.2812 331.413 69.3807C331.967 70.4716 332.244 71.8523 332.244 73.5227V86H329.227V73.7273C329.227 72.1847 328.827 70.983 328.026 70.1222C327.224 69.2528 326.125 68.8182 324.727 68.8182C323.764 68.8182 322.903 69.027 322.145 69.4446C321.395 69.8622 320.803 70.4716 320.368 71.2727C319.933 72.0739 319.716 73.0455 319.716 74.1875ZM345.99 86.4091C344.098 86.4091 342.466 85.9915 341.094 85.1562C339.73 84.3125 338.678 83.1364 337.936 81.6278C337.203 80.1108 336.837 78.3466 336.837 76.3352C336.837 74.3239 337.203 72.5511 337.936 71.017C338.678 69.4744 339.709 68.2727 341.03 67.4119C342.36 66.5426 343.911 66.108 345.684 66.108C346.706 66.108 347.716 66.2784 348.713 66.6193C349.711 66.9602 350.618 67.5142 351.436 68.2812C352.255 69.0398 352.907 70.0455 353.392 71.2983C353.878 72.5511 354.121 74.0937 354.121 75.9261V77.2045H338.985V74.5966H351.053C351.053 73.4886 350.831 72.5 350.388 71.6307C349.953 70.7614 349.331 70.0753 348.522 69.5724C347.721 69.0696 346.775 68.8182 345.684 68.8182C344.482 68.8182 343.442 69.1165 342.564 69.7131C341.695 70.3011 341.026 71.0682 340.557 72.0142C340.088 72.9602 339.854 73.9744 339.854 75.0568V76.7955C339.854 78.2784 340.11 79.5355 340.621 80.5668C341.141 81.5895 341.861 82.3693 342.782 82.9062C343.702 83.4347 344.772 83.6989 345.99 83.6989C346.783 83.6989 347.499 83.5881 348.138 83.3665C348.786 83.1364 349.344 82.7955 349.813 82.3438C350.282 81.8835 350.644 81.3125 350.9 80.6307L353.814 81.4489C353.507 82.4375 352.992 83.3068 352.267 84.0568C351.543 84.7983 350.648 85.3778 349.583 85.7955C348.517 86.2045 347.32 86.4091 345.99 86.4091ZM358.711 86V66.3636H361.625V69.3295H361.83C362.188 68.358 362.836 67.5696 363.773 66.9645C364.711 66.3594 365.767 66.0568 366.944 66.0568C367.165 66.0568 367.442 66.0611 367.775 66.0696C368.107 66.0781 368.358 66.0909 368.529 66.108V69.1761C368.426 69.1506 368.192 69.1122 367.826 69.0611C367.468 69.0014 367.088 68.9716 366.688 68.9716C365.733 68.9716 364.881 69.1719 364.131 69.5724C363.39 69.9645 362.801 70.5099 362.367 71.2088C361.941 71.8991 361.728 72.6875 361.728 73.5739V86H358.711Z" fill="#607D8B"/>
</svg>
