<svg width="87" height="75" viewBox="0 0 87 75" fill="none" xmlns="http://www.w3.org/2000/svg">
<path fill-rule="evenodd" clip-rule="evenodd" d="M28.9928 0C19.0614 0 10.9687 7.87236 10.6145 17.7173C4.29802 22.6484 0 29.1909 0 38.5131C0 45.6572 2.59623 50.4768 6.42108 54.9992C6.77662 66.0013 15.8072 74.812 26.8963 74.812C33.7275 74.812 39.7779 71.4685 43.5001 66.3281C47.2222 71.4685 53.2726 74.812 60.1038 74.812C71.193 74.812 80.2236 66.0013 80.579 54.9992C84.404 50.4768 87 45.6572 87 38.5131C87 29.1909 82.7022 22.6484 76.3856 17.7173C76.0314 7.87236 67.939 0 58.0073 0C52.1126 0 46.8656 2.77341 43.5001 7.0866C40.1345 2.77341 34.8875 0 28.9928 0ZM18.3692 18.3904C18.3692 12.5231 23.1256 7.76679 28.9928 7.76679C34.86 7.76679 39.6163 12.5231 39.6163 18.3904L39.6162 30.336C39.5147 31.5146 38.8398 33.9858 37.2901 36.2456C35.7544 38.485 33.6211 40.1637 30.697 40.4901C28.5655 40.7279 27.0304 42.6487 27.2683 44.7803C27.5063 46.9117 29.427 48.4468 31.5585 48.2089C34.8059 47.8465 37.4731 46.614 39.6161 44.9774L39.616 54.3254C39.616 61.3505 33.9211 67.0452 26.8963 67.0452C19.8715 67.0452 14.177 61.3505 14.177 54.3254V54.2075C14.3977 53.0474 14.8434 51.691 15.4451 50.4676C16.0928 49.1502 16.7535 48.3274 17.1969 47.9773C18.8802 46.6481 19.1673 44.2061 17.8382 42.5229C16.5091 40.8396 14.0671 40.5525 12.3838 41.8816C11.1321 42.87 10.1106 44.1805 9.30127 45.5233C8.2776 43.4552 7.76679 41.2545 7.76679 38.5131C7.76679 33.4416 9.49407 29.5591 12.6809 26.2568C13.3721 27.4537 14.1791 28.4906 15.0239 29.3675C16.9959 31.4145 19.3754 32.794 21.3257 33.2386C23.4168 33.7153 25.4984 32.4066 25.9752 30.3155C26.4519 28.2245 25.1432 26.1428 23.0521 25.6661C23.0536 25.6665 23.0533 25.6664 23.0521 25.6661C23.0415 25.6631 22.9602 25.6405 22.8116 25.5767C22.6499 25.5071 22.4419 25.4028 22.2008 25.2572C21.7161 24.9641 21.1572 24.5393 20.6174 23.9789C19.5638 22.8852 18.6325 21.3339 18.3692 19.2476V18.3904ZM55.4416 48.2089C52.1942 47.8465 49.527 46.614 47.384 44.9774L47.3841 54.3254C47.3841 61.3505 53.079 67.0452 60.1038 67.0452C67.1288 67.0452 72.8228 61.3505 72.8228 54.3254V54.2075C72.6022 53.0474 72.1567 51.691 71.5552 50.4676C70.9072 49.1502 70.2467 48.3274 69.803 47.9773C68.1198 46.6481 67.8327 44.2061 69.1618 42.5229C70.4909 40.8396 72.9327 40.5525 74.6166 41.8816C75.868 42.87 76.8895 44.1805 77.6991 45.5233C78.7224 43.4552 79.2332 41.2545 79.2332 38.5131C79.2332 33.4419 77.5065 29.5595 74.3196 26.2573C73.6286 27.454 72.8215 28.4907 71.9771 29.3675C70.005 31.4145 67.6252 32.794 65.6754 33.2386C63.584 33.7153 61.5024 32.4066 61.0257 30.3155C60.549 28.2245 61.8576 26.1428 63.9487 25.6661C63.9593 25.6631 64.0407 25.6405 64.1892 25.5767C64.3507 25.5071 64.5589 25.4028 64.8 25.2572C65.2846 24.9641 65.8438 24.5393 66.3838 23.9789C67.4363 22.8863 68.3665 21.3369 68.6312 19.2536V18.3904C68.6312 12.5231 63.8748 7.76679 58.0073 7.76679C52.1401 7.76679 47.3838 12.5231 47.3838 18.3904L47.3839 30.336C47.4854 31.5147 48.1603 33.9858 49.71 36.2456C51.2457 38.485 53.379 40.1637 56.3031 40.4901C58.4346 40.7279 59.9697 42.6487 59.7318 44.7803C59.4939 46.9117 57.5731 48.4468 55.4416 48.2089Z" fill="#6D2F75"/>
</svg>
