<svg width="185" height="185" viewBox="0 0 185 185" fill="none" xmlns="http://www.w3.org/2000/svg">
<circle cx="92.5" cy="92.5" r="92.5" fill="#F4E7F7"/>
<path fill-rule="evenodd" clip-rule="evenodd" d="M77.9928 56C68.0614 56 59.9687 63.8724 59.6145 73.7173C53.298 78.6484 49 85.1909 49 94.5131C49 101.657 51.5962 106.477 55.4211 110.999C55.7766 122.001 64.8072 130.812 75.8963 130.812C82.7275 130.812 88.7779 127.469 92.5001 122.328C96.2222 127.469 102.273 130.812 109.104 130.812C120.193 130.812 129.224 122.001 129.579 110.999C133.404 106.477 136 101.657 136 94.5131C136 85.1909 131.702 78.6484 125.386 73.7173C125.031 63.8724 116.939 56 107.007 56C101.113 56 95.8656 58.7734 92.5001 63.0866C89.1345 58.7734 83.8875 56 77.9928 56ZM67.3692 74.3904C67.3692 68.5231 72.1256 63.7668 77.9928 63.7668C83.86 63.7668 88.6163 68.5231 88.6163 74.3904L88.6162 86.336C88.5147 87.5146 87.8398 89.9858 86.2901 92.2456C84.7544 94.485 82.6211 96.1637 79.697 96.4901C77.5655 96.7279 76.0304 98.6487 76.2683 100.78C76.5063 102.912 78.427 104.447 80.5585 104.209C83.8059 103.846 86.4731 102.614 88.6161 100.977L88.616 110.325C88.616 117.351 82.9211 123.045 75.8963 123.045C68.8715 123.045 63.177 117.351 63.177 110.325V110.207C63.3977 109.047 63.8434 107.691 64.4451 106.468C65.0928 105.15 65.7535 104.327 66.1969 103.977C67.8802 102.648 68.1673 100.206 66.8382 98.5229C65.5091 96.8396 63.0671 96.5525 61.3838 97.8816C60.1321 98.87 59.1106 100.18 58.3013 101.523C57.2776 99.4552 56.7668 97.2545 56.7668 94.5131C56.7668 89.4416 58.4941 85.5591 61.6809 82.2568C62.3721 83.4537 63.1791 84.4906 64.0239 85.3675C65.9959 87.4145 68.3754 88.794 70.3257 89.2386C72.4168 89.7153 74.4984 88.4066 74.9752 86.3155C75.4519 84.2245 74.1432 82.1428 72.0521 81.6661C72.0536 81.6665 72.0533 81.6664 72.0521 81.6661C72.0415 81.6631 71.9602 81.6405 71.8116 81.5767C71.6499 81.5071 71.4419 81.4028 71.2008 81.2572C70.7161 80.9641 70.1572 80.5393 69.6174 79.9789C68.5638 78.8852 67.6325 77.3339 67.3692 75.2476V74.3904ZM104.442 104.209C101.194 103.846 98.527 102.614 96.384 100.977L96.3841 110.325C96.3841 117.351 102.079 123.045 109.104 123.045C116.129 123.045 121.823 117.351 121.823 110.325V110.207C121.602 109.047 121.157 107.691 120.555 106.468C119.907 105.15 119.247 104.327 118.803 103.977C117.12 102.648 116.833 100.206 118.162 98.5229C119.491 96.8396 121.933 96.5525 123.617 97.8816C124.868 98.87 125.889 100.18 126.699 101.523C127.722 99.4552 128.233 97.2545 128.233 94.5131C128.233 89.4419 126.506 85.5595 123.32 82.2573C122.629 83.454 121.822 84.4907 120.977 85.3675C119.005 87.4145 116.625 88.794 114.675 89.2386C112.584 89.7153 110.502 88.4066 110.026 86.3155C109.549 84.2245 110.858 82.1428 112.949 81.6661C112.959 81.6631 113.041 81.6405 113.189 81.5767C113.351 81.5071 113.559 81.4028 113.8 81.2572C114.285 80.9641 114.844 80.5393 115.384 79.9789C116.436 78.8863 117.366 77.3369 117.631 75.2536V74.3904C117.631 68.5231 112.875 63.7668 107.007 63.7668C101.14 63.7668 96.3838 68.5231 96.3838 74.3904L96.3839 86.336C96.4854 87.5147 97.1603 89.9858 98.71 92.2456C100.246 94.485 102.379 96.1637 105.303 96.4901C107.435 96.7279 108.97 98.6487 108.732 100.78C108.494 102.912 106.573 104.447 104.442 104.209Z" fill="#6D2F75"/>
</svg>
